<svg width="20" height="20" viewBox="0 0 20 20" fill="none" xmlns="http://www.w3.org/2000/svg">
<path fill-rule="evenodd" clip-rule="evenodd" d="M3.62333 17.7008L7.11083 11.66L11.8358 19.8317C11.2408 19.9425 10.6275 20 10 20C7.5775 20 5.35417 19.1367 3.62333 17.7008ZM19.4317 13.3283C18.4467 16.1158 16.26 18.3383 13.495 19.3717L10.0058 13.3283H19.4317ZM7.11 8.32833L2.39667 16.4925C0.9025 14.745 0 12.4767 0 10C0 9.43 0.0475 8.87167 0.139167 8.32833H7.11ZM17.5958 3.49917C19.0942 5.2475 20 7.51917 20 10C20 10.5658 19.9525 11.1208 19.8625 11.6617H12.885L17.5958 3.49917ZM8.175 0.166667C8.76667 0.0575 9.37667 0 10 0C12.4192 0 14.6383 0.860833 16.3683 2.2925L12.885 8.32583L8.175 0.166667ZM10 6.66167H0.571667C1.56 3.875 3.74833 1.655 6.515 0.625L10 6.66167Z" fill="white"/>
</svg>
