<svg width="52" height="52" viewBox="0 0 52 52" fill="none" xmlns="http://www.w3.org/2000/svg">
<rect x="0.5" y="0.5" width="51" height="51" rx="7.5" fill="white"/>
<path d="M26 17.9167C28.135 17.9167 30.0752 18.7507 31.5204 20.1094L29.6257 22.0041L29.2665 22.3633L29.7703 22.4288L35.9678 23.2338L36.2946 23.2762L36.2474 22.9501L35.3633 16.8326L35.2919 16.3387L34.9391 16.6916L33.0471 18.5835C31.2126 16.834 28.7382 15.75 26 15.75C20.3394 15.75 15.75 20.3394 15.75 26C15.75 31.6606 20.3394 36.25 26 36.25C29.9314 36.25 33.342 34.0337 35.0601 30.7861L35.1702 30.5781L34.9692 30.4557L33.5384 29.584L33.309 29.4442L33.1861 29.6831C31.8427 32.2929 29.1287 34.0833 26 34.0833C21.5431 34.0833 17.9167 30.4569 17.9167 26C17.9167 21.5431 21.5431 17.9167 26 17.9167Z" fill="#485DD8" stroke="#485DD8" stroke-width="0.5"/>
<rect x="0.5" y="0.5" width="51" height="51" rx="7.5" stroke="#485DD8"/>
</svg>
