<svg width="116" height="116" viewBox="0 0 116 116" fill="none" xmlns="http://www.w3.org/2000/svg">
<circle cx="57.9996" cy="58" r="52" transform="rotate(-4 57.9996 58)" fill="black" stroke="url(#paint0_linear_390_45418)" stroke-width="4"/>
<path d="M37.4296 64.8774L37.1896 61.1593L48.9055 49.0551C49.8532 48.0919 50.4781 47.1915 50.7802 46.3538C51.0956 45.5151 51.2248 44.6895 51.168 43.8769C51.0963 42.8511 50.806 41.9477 50.2973 41.1667C49.7876 40.3724 49.1172 39.7633 48.2862 39.3395C47.4551 38.9157 46.5212 38.7401 45.4844 38.8126C44.4211 38.8869 43.4884 39.2065 42.6864 39.7713C41.8968 40.3218 41.2982 41.0263 40.8908 41.8847C40.4833 42.7432 40.3197 43.6516 40.4001 44.6098L36.1334 44.9081C36.003 43.0431 36.3075 41.382 37.0471 39.9246C37.7991 38.4531 38.8853 37.2727 40.3057 36.3836C41.7252 35.4811 43.3854 34.9634 45.2861 34.8305C47.0938 34.7041 48.7443 35.0037 50.2376 35.7292C51.73 36.4415 52.938 37.4815 53.8618 38.8492C54.7989 40.2161 55.3312 41.812 55.4589 43.6371C55.5511 44.9559 55.4565 46.087 55.1752 47.0303C54.8939 47.9737 54.4351 48.8625 53.7989 49.6968C53.1627 50.5311 52.3583 51.4441 51.3858 52.4358L42.3395 61.7429L41.7971 60.5761L56.5711 59.543L56.8492 63.5194L37.4296 64.8774Z" fill="url(#paint1_linear_390_45418)"/>
<path d="M73.0156 62.409L72.6649 57.3935L59.7052 58.2997L59.4285 54.3432L67.3748 33.8883L72.1399 33.5551L64.1937 54.01L72.3882 53.437L71.8433 45.6439L76.0701 45.3484L76.6151 53.1414L79.4662 52.9421L79.7428 56.8986L76.8917 57.0979L77.2424 62.1135L73.0156 62.409Z" fill="url(#paint2_linear_390_45418)"/>
<path d="M38.6426 78.1993L37.9719 68.6078L38.7362 68.5544L39.0455 72.9771L44.5882 72.5895L44.279 68.1668L45.0499 68.1129L45.7206 77.7043L44.9497 77.7582L44.6404 73.3355L39.0976 73.7231L39.4069 78.1458L38.6426 78.1993Z" fill="url(#paint3_linear_390_45418)"/>
<path d="M51.4216 77.5065C50.469 77.5731 49.6545 77.4181 48.9781 77.0415C48.3014 76.6604 47.7729 76.1061 47.3926 75.3786C47.0122 74.6511 46.7878 73.7967 46.7191 72.8153C46.6505 71.834 46.7539 70.9566 47.0293 70.1832C47.3047 69.4099 47.7511 68.7896 48.3684 68.3226C48.9855 67.851 49.7703 67.582 50.7229 67.5154C51.6755 67.4487 52.4879 67.6061 53.1602 67.9875C53.8366 68.3641 54.3649 68.9162 54.7453 69.6437C55.1256 70.3712 55.3501 71.2256 55.4187 72.207C55.4874 73.1883 55.384 74.0657 55.1086 74.8391C54.8332 75.6124 54.387 76.2349 53.7699 76.7064C53.1569 77.1732 52.3742 77.4399 51.4216 77.5065ZM51.3689 76.7538C52.1535 76.7034 52.7946 76.4801 53.2923 76.0839C53.7896 75.6832 54.1466 75.154 54.3633 74.4963C54.58 73.8386 54.6593 73.0945 54.6013 72.2641C54.5432 71.4338 54.3611 70.708 54.055 70.0869C53.7489 69.4657 53.3218 68.9936 52.7739 68.6704C52.2259 68.3473 51.5598 68.2132 50.7756 68.268C49.991 68.3184 49.3499 68.5417 48.8523 68.938C48.359 69.3339 48.0042 69.863 47.7878 70.5251C47.5711 71.1828 47.4874 71.9272 47.5366 72.7582C47.5858 73.5892 47.7635 74.3152 48.0696 74.9364C48.3798 75.5528 48.8113 76.0246 49.364 76.3519C49.9164 76.6747 50.5847 76.8087 51.3689 76.7538Z" fill="url(#paint4_linear_390_45418)"/>
<path d="M60.797 76.8509C60.0792 76.9011 59.4308 76.7969 58.8517 76.5385C58.2768 76.2752 57.8109 75.8839 57.454 75.3645C57.1012 74.8403 56.8992 74.2119 56.848 73.4792L56.4171 67.318L57.1881 67.2641L57.6077 73.2654C57.6459 73.8116 57.7695 74.2737 57.9785 74.6518C58.1916 75.0251 58.4529 75.3236 58.7624 75.5474C59.0763 75.7709 59.4057 75.9286 59.7505 76.0205C60.0997 76.1121 60.4316 76.1469 60.7462 76.1249C61.0608 76.1029 61.3846 76.0222 61.7177 75.8829C62.0508 75.7436 62.355 75.5416 62.6304 75.2769C62.9057 75.0123 63.1207 74.6804 63.2754 74.2814C63.4341 73.8776 63.4944 73.4026 63.4562 72.8564L63.0366 66.8551L63.8075 66.8012L64.2383 72.9624C64.2892 73.6906 64.1743 74.339 63.8935 74.9075C63.6168 75.4712 63.2099 75.9236 62.6727 76.2646C62.14 76.6053 61.5148 76.8007 60.797 76.8509Z" fill="url(#paint5_linear_390_45418)"/>
<path d="M66.3429 76.2623L65.6722 66.6708L69.281 66.4185C69.374 66.4119 69.474 66.4094 69.581 66.4109C69.6921 66.4076 69.8082 66.4128 69.9294 66.4267C70.4132 66.4687 70.8351 66.6132 71.1952 66.8602C71.5594 67.1025 71.8467 67.4215 72.0569 67.8174C72.2668 68.2087 72.3888 68.6487 72.423 69.1371C72.4724 69.8432 72.3271 70.4713 71.9871 71.0216C71.6471 71.572 71.1454 71.9417 70.4819 72.1309L70.2686 72.2328L66.8459 72.4722L67.1072 76.2088L66.3429 76.2623ZM72.2379 75.8501L70.0775 72.0789L70.7635 71.6694L73.1351 75.7873L72.2379 75.8501ZM66.7933 71.7195L69.6245 71.5215C69.7042 71.5159 69.7947 71.5052 69.896 71.4891C70.0017 71.4728 70.1071 71.4521 70.2122 71.4269C70.5529 71.3317 70.8311 71.1716 71.0469 70.9468C71.2624 70.7176 71.4173 70.4502 71.5117 70.1446C71.6061 69.839 71.6418 69.5219 71.6188 69.1933C71.5958 68.8647 71.5165 68.5579 71.3808 68.2729C71.2448 67.9835 71.0543 67.7424 70.8093 67.5498C70.564 67.3528 70.2661 67.2309 69.9155 67.184C69.8077 67.1692 69.7002 67.1611 69.5933 67.1596C69.4907 67.1579 69.3996 67.1598 69.3199 67.1654L66.4887 67.3634L66.7933 71.7195Z" fill="url(#paint6_linear_390_45418)"/>
<path d="M77.8623 75.6576C77.2066 75.7034 76.6075 75.636 76.065 75.4553C75.527 75.2742 75.0712 74.996 74.6977 74.6205C74.3286 74.2447 74.0672 73.7856 73.9135 73.243L74.6884 73.0549C74.897 73.6829 75.2823 74.1624 75.8442 74.4935C76.4105 74.8243 77.0725 74.9632 77.8301 74.9102C78.3441 74.8742 78.7925 74.7603 79.1753 74.5685C79.5581 74.3766 79.8499 74.1241 80.0507 73.8111C80.2511 73.4937 80.3373 73.1351 80.3094 72.7355C80.2892 72.4469 80.2191 72.2086 80.0991 72.0206C79.9835 71.8324 79.8394 71.6818 79.6668 71.5689C79.4939 71.4516 79.3117 71.3617 79.1203 71.2993C78.9287 71.2323 78.7492 71.1802 78.5818 71.1428L76.1257 70.5917C75.8001 70.5207 75.5063 70.4253 75.2441 70.3053C74.9861 70.1805 74.7643 70.0332 74.5787 69.8632C74.3973 69.6885 74.2519 69.4867 74.1424 69.2578C74.0373 69.0287 73.9747 68.7698 73.9545 68.4812C73.9185 67.9661 74.0243 67.5057 74.272 67.1002C74.5197 66.6947 74.8753 66.3686 75.3389 66.122C75.8067 65.8707 76.3529 65.7231 76.9776 65.6794C77.6071 65.6399 78.1802 65.7181 78.697 65.914C79.2135 66.1054 79.6459 66.3987 79.9941 66.7938C80.3467 67.1886 80.5896 67.6691 80.7227 68.2355L79.9416 68.4306C79.8488 67.9954 79.6624 67.6224 79.3825 67.3118C79.1069 67.0009 78.7657 66.7681 78.3586 66.6137C77.9515 66.4592 77.5065 66.3988 77.0236 66.4326C76.5581 66.4607 76.1514 66.5672 75.8037 66.7522C75.4605 66.9368 75.1964 67.1717 75.0115 67.4568C74.8267 67.7419 74.7462 68.0554 74.7701 68.3974C74.7949 68.7526 74.9101 69.0301 75.1155 69.23C75.325 69.425 75.5736 69.5727 75.8611 69.6731C76.153 69.7732 76.4301 69.852 76.6924 69.9095L78.6598 70.3475C78.8451 70.3881 79.0675 70.4484 79.3269 70.5285C79.5863 70.6085 79.8442 70.731 80.1006 70.896C80.3567 71.0566 80.5749 71.2801 80.7552 71.5665C80.9397 71.8481 81.0474 72.2109 81.0784 72.6549C81.1086 73.0857 81.0536 73.4777 80.9136 73.8311C80.7736 74.1845 80.5591 74.4918 80.2701 74.7529C79.9809 75.0097 79.6323 75.2148 79.2246 75.3682C78.8171 75.5261 78.363 75.6226 77.8623 75.6576Z" fill="url(#paint7_linear_390_45418)"/>
<path d="M39.7387 86.4406C39.4188 86.4629 39.1231 86.4271 38.8516 86.3332C38.58 86.2392 38.3418 86.0941 38.137 85.8977C37.9319 85.6992 37.7671 85.4545 37.6425 85.1634C37.5199 84.8701 37.4455 84.5354 37.4192 84.1593C37.3844 83.6622 37.443 83.2259 37.5948 82.8504C37.7467 82.4749 37.9767 82.1775 38.285 81.9583C38.5932 81.7369 38.9645 81.6111 39.3989 81.5807C39.9219 81.5441 40.352 81.6368 40.6889 81.8586C41.0257 82.0783 41.2694 82.3947 41.4199 82.8077L40.8447 82.9685C40.7277 82.6921 40.5519 82.4774 40.3175 82.3244C40.0831 82.1714 39.7995 82.1065 39.4666 82.1298C39.1185 82.152 38.8343 82.25 38.6141 82.424C38.3958 82.5956 38.2383 82.8271 38.1413 83.1184C38.0444 83.4097 38.008 83.7424 38.032 84.1165C38.0558 84.4884 38.1359 84.8107 38.2722 85.0836C38.4086 85.3564 38.598 85.5647 38.8405 85.7084C39.0849 85.8499 39.3812 85.9095 39.7294 85.8874C40.03 85.8685 40.2788 85.7936 40.476 85.6625C40.6732 85.5314 40.8202 85.3517 40.9172 85.1234C41.0142 84.8951 41.0638 84.6256 41.0659 84.3148L40.0738 84.3842L40.0405 83.9076L41.6421 83.7956C41.6516 83.8384 41.6585 83.89 41.6627 83.9505C41.669 84.0088 41.6728 84.0487 41.6744 84.0703C41.7041 84.4961 41.6508 84.8831 41.5145 85.2315C41.3801 85.5776 41.164 85.8576 40.8662 86.0718C40.5706 86.2857 40.1948 86.4087 39.7387 86.4406ZM42.5355 86.1473L42.209 81.4787L42.7861 81.4383L43.0742 85.559L45.24 85.4076L45.2783 85.9555L42.5355 86.1473ZM47.6262 85.889C47.1615 85.9215 46.7598 85.8464 46.4213 85.6638C46.0827 85.4811 45.8153 85.2131 45.619 84.8598C45.4248 84.5063 45.311 84.0896 45.2774 83.6098C45.2439 83.13 45.2986 82.7015 45.4417 82.3245C45.5869 81.9473 45.8144 81.6447 46.1243 81.4167C46.4341 81.1886 46.8214 81.0584 47.2861 81.0259C47.753 80.9933 48.1557 81.0683 48.4942 81.2509C48.8328 81.4336 49.0992 81.7017 49.2933 82.0551C49.4874 82.4086 49.6013 82.8253 49.6348 83.3051C49.6684 83.7849 49.6136 84.2134 49.4706 84.5905C49.3275 84.9675 49.1011 85.2701 48.7912 85.4981C48.4814 85.7261 48.093 85.8564 47.6262 85.889ZM47.5876 85.3379C47.9358 85.3157 48.2199 85.2176 48.4402 85.0437C48.6624 84.8674 48.8209 84.6337 48.9157 84.3426C49.0126 84.0513 49.0481 83.7197 49.0221 83.348C48.9959 82.974 48.9147 82.6507 48.7783 82.3779C48.6441 82.1049 48.4548 81.8977 48.2103 81.7562C47.968 81.6146 47.6728 81.5549 47.3246 81.5771C46.9765 81.5992 46.6923 81.6973 46.4721 81.8712C46.254 82.045 46.0965 82.2776 45.9996 82.5689C45.9027 82.8602 45.8662 83.1929 45.8902 83.567C45.914 83.9389 45.9941 84.2612 46.1305 84.5341C46.2669 84.8069 46.4563 85.0152 46.6987 85.1589C46.9432 85.3004 47.2395 85.36 47.5876 85.3379ZM50.4492 85.5939L50.1227 80.9253L51.9415 80.7981C52.2204 80.7786 52.4621 80.8193 52.6668 80.9201C52.8737 81.0207 53.0355 81.1614 53.1524 81.3422C53.2714 81.5207 53.3384 81.718 53.3535 81.9341C53.3712 82.187 53.3218 82.4131 53.2054 82.6124C53.089 82.8116 52.9231 82.9546 52.7076 83.0414L52.69 82.883C52.9961 82.9419 53.2398 83.0726 53.4212 83.2749C53.6026 83.4773 53.7036 83.7265 53.7243 84.0226C53.7434 84.2949 53.7036 84.5345 53.6051 84.7412C53.5088 84.9477 53.3597 85.1134 53.1577 85.2383C52.958 85.3631 52.7154 85.4354 52.4301 85.4554L50.4492 85.5939ZM50.9942 85.0019L52.2813 84.9119C52.4542 84.8998 52.6066 84.8577 52.7384 84.7855C52.87 84.7111 52.9707 84.6129 53.0403 84.4907C53.1121 84.3684 53.1423 84.2251 53.1308 84.0608C53.1198 83.9031 53.0742 83.764 52.9941 83.6436C52.9162 83.5231 52.8109 83.4305 52.6782 83.366C52.5476 83.2991 52.399 83.2715 52.2326 83.2831L50.8806 83.3776L50.9942 85.0019ZM50.8426 82.833L52.0713 82.747C52.2096 82.7374 52.3319 82.6995 52.438 82.6334C52.5462 82.5651 52.6289 82.4746 52.6862 82.362C52.7456 82.2492 52.7703 82.1204 52.7602 81.9756C52.7461 81.7746 52.6665 81.6151 52.5215 81.4971C52.3764 81.3791 52.1936 81.3278 51.9731 81.3432L50.7444 81.4291L50.8426 82.833ZM54.1396 85.3358L55.3758 80.558L56.1799 80.5017L58.069 85.0611L57.4692 85.103L55.7042 80.8738L55.8857 80.8611L54.7394 85.2939L54.1396 85.3358ZM54.8154 84.1906L54.7775 83.6492L57.2026 83.4796L57.2404 84.0211L54.8154 84.1906ZM58.7142 85.0159L58.3878 80.3473L58.9649 80.307L59.253 84.4277L61.4187 84.2762L61.457 84.8241L58.7142 85.0159ZM62.9806 84.7176L62.6541 80.049L65.6044 79.8427L65.6428 80.3906L63.2695 80.5566L63.3718 82.0187L65.3559 81.88L65.3943 82.4279L63.4101 82.5667L63.5194 84.1293L65.8926 83.9634L65.9309 84.5113L62.9806 84.7176ZM67.8515 84.377L65.9623 79.8177L66.5621 79.7757L68.2042 83.7366L69.292 79.5848L69.8917 79.5429L68.6555 84.3208L67.8515 84.377ZM70.7059 84.1774L70.3794 79.5088L73.3297 79.3025L73.368 79.8504L70.9948 80.0164L71.0971 81.4785L73.0812 81.3398L73.1195 81.8877L71.1354 82.0264L71.2447 83.5891L73.6179 83.4232L73.6562 83.9711L70.7059 84.1774ZM74.4355 83.9166L74.1091 79.248L74.6927 79.2072L77.3825 82.6843L77.1275 79.0369L77.711 78.9961L78.0375 83.6647L77.4539 83.7055L74.7638 80.2252L75.0191 83.8758L74.4355 83.9166ZM80.1469 83.5172L79.8587 79.3965L78.2669 79.5078L78.2286 78.9599L81.9894 78.697L82.0277 79.2449L80.4358 79.3562L80.724 83.4769L80.1469 83.5172Z" fill="#EBB12D"/>
<line x1="57.5666" y1="58.1987" x2="95.1531" y2="79.629" stroke="#EBB12D" stroke-width="2"/>
<line x1="58.0688" y1="58.9975" x2="55.1391" y2="17.0998" stroke="#EBB12D" stroke-width="2"/>
<defs>
<linearGradient id="paint0_linear_390_45418" x1="26.9996" y1="102" x2="105" y2="28.5" gradientUnits="userSpaceOnUse">
<stop stop-color="#EBB12D"/>
<stop offset="1" stop-color="#FFE9B6"/>
</linearGradient>
<linearGradient id="paint1_linear_390_45418" x1="56.8246" y1="34.0237" x2="59.8241" y2="76.9189" gradientUnits="userSpaceOnUse">
<stop stop-color="white"/>
<stop offset="1" stop-color="#888888"/>
</linearGradient>
<linearGradient id="paint2_linear_390_45418" x1="56.8246" y1="34.0237" x2="59.8241" y2="76.9189" gradientUnits="userSpaceOnUse">
<stop stop-color="white"/>
<stop offset="1" stop-color="#888888"/>
</linearGradient>
<linearGradient id="paint3_linear_390_45418" x1="56.8246" y1="34.0237" x2="59.8241" y2="76.9189" gradientUnits="userSpaceOnUse">
<stop stop-color="white"/>
<stop offset="1" stop-color="#888888"/>
</linearGradient>
<linearGradient id="paint4_linear_390_45418" x1="56.8246" y1="34.0237" x2="59.8241" y2="76.9189" gradientUnits="userSpaceOnUse">
<stop stop-color="white"/>
<stop offset="1" stop-color="#888888"/>
</linearGradient>
<linearGradient id="paint5_linear_390_45418" x1="56.8246" y1="34.0237" x2="59.8241" y2="76.9189" gradientUnits="userSpaceOnUse">
<stop stop-color="white"/>
<stop offset="1" stop-color="#888888"/>
</linearGradient>
<linearGradient id="paint6_linear_390_45418" x1="56.8246" y1="34.0237" x2="59.8241" y2="76.9189" gradientUnits="userSpaceOnUse">
<stop stop-color="white"/>
<stop offset="1" stop-color="#888888"/>
</linearGradient>
<linearGradient id="paint7_linear_390_45418" x1="56.8246" y1="34.0237" x2="59.8241" y2="76.9189" gradientUnits="userSpaceOnUse">
<stop stop-color="white"/>
<stop offset="1" stop-color="#888888"/>
</linearGradient>
</defs>
</svg>
