<svg width="453" height="32" viewBox="0 0 453 32" fill="none" xmlns="http://www.w3.org/2000/svg">
<path d="M11.0275 24.48C9.57683 24.48 8.1955 24.224 6.8835 23.712C5.5715 23.1893 4.40883 22.4213 3.3955 21.408C2.39283 20.3947 1.59817 19.1413 1.0115 17.648C0.4355 16.1547 0.1475 14.432 0.1475 12.48C0.1475 9.93067 0.632833 7.76533 1.6035 5.984C2.58483 4.192 3.89683 2.82667 5.5395 1.888C7.19283 0.949333 9.02217 0.48 11.0275 0.48C13.9928 0.48 16.3235 1.168 18.0195 2.544C19.7155 3.92 20.8515 5.86667 21.4275 8.384L16.9795 9.024C16.5635 7.68 15.8808 6.608 14.9315 5.808C13.9928 4.99733 12.7875 4.58667 11.3155 4.576C9.85417 4.55467 8.63817 4.86933 7.6675 5.52C6.69683 6.17067 5.96617 7.09333 5.4755 8.288C4.9955 9.48267 4.7555 10.88 4.7555 12.48C4.7555 14.08 4.9955 15.4667 5.4755 16.64C5.96617 17.8133 6.69683 18.7253 7.6675 19.376C8.63817 20.0267 9.85417 20.3627 11.3155 20.384C12.3075 20.4053 13.2035 20.2347 14.0035 19.872C14.8142 19.5093 15.4968 18.9387 16.0515 18.16C16.6062 17.3813 17.0008 16.384 17.2355 15.168H13.5875V11.808H21.8755C21.8968 11.9467 21.9128 12.192 21.9235 12.544C21.9342 12.896 21.9395 13.0987 21.9395 13.152C21.9395 15.36 21.4915 17.3173 20.5955 19.024C19.6995 20.7307 18.4355 22.0693 16.8035 23.04C15.1715 24 13.2462 24.48 11.0275 24.48ZM23.8662 24V0.48H28.2182V24H23.8662ZM39.191 24.48C37.4523 24.48 35.927 24.0907 34.615 23.312C33.303 22.5333 32.279 21.4613 31.543 20.096C30.8177 18.72 30.455 17.1413 30.455 15.36C30.455 13.5573 30.8283 11.9733 31.575 10.608C32.3217 9.232 33.351 8.16 34.663 7.392C35.975 6.624 37.4843 6.24 39.191 6.24C40.9297 6.24 42.455 6.62933 43.767 7.408C45.0897 8.18667 46.119 9.264 46.855 10.64C47.591 12.0053 47.959 13.5787 47.959 15.36C47.959 17.152 47.5857 18.736 46.839 20.112C46.103 21.4773 45.0737 22.5493 43.751 23.328C42.439 24.096 40.919 24.48 39.191 24.48ZM39.191 20.416C40.5883 20.416 41.6283 19.9467 42.311 19.008C43.0043 18.0587 43.351 16.8427 43.351 15.36C43.351 13.824 42.999 12.5973 42.295 11.68C41.6017 10.7627 40.567 10.304 39.191 10.304C38.2417 10.304 37.463 10.5173 36.855 10.944C36.247 11.3707 35.7937 11.9627 35.495 12.72C35.207 13.4773 35.063 14.3573 35.063 15.36C35.063 16.9067 35.4097 18.1387 36.103 19.056C36.807 19.9627 37.8363 20.416 39.191 20.416ZM58.3575 24.48C56.6402 24.48 55.2055 24.08 54.0535 23.28C52.9015 22.48 52.0322 21.392 51.4455 20.016C50.8695 18.64 50.5815 17.088 50.5815 15.36C50.5815 13.632 50.8695 12.08 51.4455 10.704C52.0215 9.328 52.8695 8.24 53.9895 7.44C55.1095 6.64 56.4908 6.24 58.1335 6.24C59.7868 6.24 61.2268 6.63467 62.4535 7.424C63.6802 8.21333 64.6295 9.296 65.3015 10.672C65.9842 12.0373 66.3255 13.6 66.3255 15.36C66.3255 17.088 65.9895 18.64 65.3175 20.016C64.6562 21.392 63.7282 22.48 62.5335 23.28C61.3388 24.08 59.9468 24.48 58.3575 24.48ZM49.8455 24V0.959999H54.2295V12.16H53.6855V24H49.8455ZM57.6535 20.608C58.5922 20.608 59.3602 20.3733 59.9575 19.904C60.5548 19.4347 60.9975 18.8053 61.2855 18.016C61.5735 17.216 61.7175 16.3307 61.7175 15.36C61.7175 14.4 61.5682 13.5253 61.2695 12.736C60.9708 11.936 60.5068 11.3013 59.8775 10.832C59.2588 10.352 58.4642 10.112 57.4935 10.112C56.5868 10.112 55.8508 10.3307 55.2855 10.768C54.7308 11.2053 54.3255 11.8187 54.0695 12.608C53.8135 13.3973 53.6855 14.3147 53.6855 15.36C53.6855 16.4053 53.8135 17.3227 54.0695 18.112C54.3255 18.9013 54.7415 19.5147 55.3175 19.952C55.9042 20.3893 56.6828 20.608 57.6535 20.608ZM73.0462 24.48C71.8089 24.48 70.7582 24.2453 69.8942 23.776C69.0409 23.296 68.3902 22.6613 67.9422 21.872C67.5049 21.072 67.2862 20.192 67.2862 19.232C67.2862 18.432 67.4089 17.7013 67.6542 17.04C67.8996 16.3787 68.2942 15.7973 68.8382 15.296C69.3929 14.784 70.1342 14.3573 71.0622 14.016C71.7022 13.7813 72.4649 13.5733 73.3502 13.392C74.2356 13.2107 75.2382 13.04 76.3582 12.88C77.4782 12.7093 78.7102 12.5227 80.0542 12.32L78.4862 13.184C78.4862 12.16 78.2409 11.408 77.7502 10.928C77.2596 10.448 76.4382 10.208 75.2862 10.208C74.6462 10.208 73.9796 10.3627 73.2862 10.672C72.5929 10.9813 72.1076 11.5307 71.8302 12.32L67.8942 11.072C68.3316 9.64267 69.1529 8.48 70.3582 7.584C71.5636 6.688 73.2062 6.24 75.2862 6.24C76.8116 6.24 78.1662 6.47467 79.3502 6.944C80.5342 7.41333 81.4302 8.224 82.0382 9.376C82.3796 10.016 82.5822 10.656 82.6462 11.296C82.7102 11.936 82.7422 12.6507 82.7422 13.44V24H78.9342V20.448L79.4782 21.184C78.6356 22.3467 77.7236 23.1893 76.7422 23.712C75.7716 24.224 74.5396 24.48 73.0462 24.48ZM73.9742 21.056C74.7742 21.056 75.4462 20.9173 75.9902 20.64C76.5449 20.352 76.9822 20.0267 77.3022 19.664C77.6329 19.3013 77.8569 18.9973 77.9742 18.752C78.1982 18.2827 78.3262 17.7387 78.3582 17.12C78.4009 16.4907 78.4222 15.968 78.4222 15.552L79.7022 15.872C78.4116 16.0853 77.3662 16.2667 76.5662 16.416C75.7662 16.5547 75.1209 16.6827 74.6302 16.8C74.1396 16.9173 73.7076 17.0453 73.3342 17.184C72.9076 17.3547 72.5609 17.5413 72.2942 17.744C72.0382 17.936 71.8462 18.1493 71.7182 18.384C71.6009 18.6187 71.5422 18.88 71.5422 19.168C71.5422 19.5627 71.6382 19.904 71.8302 20.192C72.0329 20.4693 72.3156 20.6827 72.6782 20.832C73.0409 20.9813 73.4729 21.056 73.9742 21.056ZM85.6225 24V0.48H89.9745V24H85.6225ZM97.9775 24V0.959999H101.882L109.498 16.256L117.114 0.959999H121.018V24H116.954V10.24L110.266 24H108.73L102.042 10.24V24H97.9775ZM131.941 24.48C130.17 24.48 128.607 24.1013 127.253 23.344C125.909 22.576 124.853 21.5253 124.085 20.192C123.327 18.848 122.949 17.312 122.949 15.584C122.949 13.696 123.322 12.0533 124.069 10.656C124.815 9.25867 125.845 8.176 127.157 7.408C128.469 6.62933 129.978 6.24 131.685 6.24C133.498 6.24 135.039 6.66667 136.309 7.52C137.578 8.37333 138.517 9.57333 139.125 11.12C139.733 12.6667 139.946 14.4853 139.765 16.576H135.461V14.976C135.461 13.216 135.178 11.952 134.613 11.184C134.058 10.4053 133.146 10.016 131.877 10.016C130.394 10.016 129.301 10.4693 128.597 11.376C127.903 12.272 127.557 13.6 127.557 15.36C127.557 16.9707 127.903 18.2187 128.597 19.104C129.301 19.9787 130.33 20.416 131.685 20.416C132.538 20.416 133.269 20.2293 133.877 19.856C134.485 19.4827 134.949 18.944 135.269 18.24L139.621 19.488C138.97 21.0667 137.941 22.2933 136.533 23.168C135.135 24.0427 133.605 24.48 131.941 24.48ZM126.213 16.576V13.344H137.669V16.576H126.213ZM153.085 24V15.84C153.085 15.4453 153.063 14.944 153.021 14.336C152.978 13.7173 152.845 13.0987 152.621 12.48C152.397 11.8613 152.029 11.344 151.517 10.928C151.015 10.512 150.301 10.304 149.373 10.304C148.999 10.304 148.599 10.3627 148.173 10.48C147.746 10.5973 147.346 10.8267 146.973 11.168C146.599 11.4987 146.29 11.9893 146.045 12.64C145.81 13.2907 145.693 14.1547 145.693 15.232L143.197 14.048C143.197 12.6827 143.474 11.4027 144.029 10.208C144.583 9.01333 145.415 8.048 146.525 7.312C147.645 6.576 149.053 6.208 150.749 6.208C152.103 6.208 153.207 6.43733 154.061 6.896C154.914 7.35467 155.575 7.936 156.045 8.64C156.525 9.344 156.866 10.08 157.069 10.848C157.271 11.6053 157.394 12.2987 157.437 12.928C157.479 13.5573 157.501 14.016 157.501 14.304V24H153.085ZM141.277 24V6.72H145.149V12.448H145.693V24H141.277ZM170.421 24C169.226 24.224 168.053 24.32 166.901 24.288C165.759 24.2667 164.735 24.0693 163.829 23.696C162.933 23.312 162.25 22.6987 161.781 21.856C161.354 21.0667 161.13 20.2667 161.109 19.456C161.087 18.6347 161.077 17.7067 161.077 16.672V1.92H165.429V16.416C165.429 17.088 165.434 17.696 165.445 18.24C165.466 18.7733 165.578 19.2 165.781 19.52C166.165 20.128 166.778 20.4587 167.621 20.512C168.463 20.5653 169.397 20.5227 170.421 20.384V24ZM158.133 10.08V6.72H170.421V10.08H158.133ZM179.51 24.48C177.771 24.48 176.246 24.0907 174.934 23.312C173.622 22.5333 172.598 21.4613 171.862 20.096C171.136 18.72 170.774 17.1413 170.774 15.36C170.774 13.5573 171.147 11.9733 171.894 10.608C172.64 9.232 173.67 8.16 174.982 7.392C176.294 6.624 177.803 6.24 179.51 6.24C181.248 6.24 182.774 6.62933 184.086 7.408C185.408 8.18667 186.438 9.264 187.174 10.64C187.91 12.0053 188.278 13.5787 188.278 15.36C188.278 17.152 187.904 18.736 187.158 20.112C186.422 21.4773 185.392 22.5493 184.07 23.328C182.758 24.096 181.238 24.48 179.51 24.48ZM179.51 20.416C180.907 20.416 181.947 19.9467 182.63 19.008C183.323 18.0587 183.67 16.8427 183.67 15.36C183.67 13.824 183.318 12.5973 182.614 11.68C181.92 10.7627 180.886 10.304 179.51 10.304C178.56 10.304 177.782 10.5173 177.174 10.944C176.566 11.3707 176.112 11.9627 175.814 12.72C175.526 13.4773 175.382 14.3573 175.382 15.36C175.382 16.9067 175.728 18.1387 176.422 19.056C177.126 19.9627 178.155 20.416 179.51 20.416ZM190.196 24V6.72H194.036V10.944L193.62 10.4C193.844 9.80267 194.143 9.25867 194.516 8.768C194.89 8.27733 195.348 7.872 195.892 7.552C196.308 7.296 196.762 7.09867 197.252 6.96C197.743 6.81067 198.25 6.72 198.772 6.688C199.295 6.64533 199.818 6.656 200.34 6.72V10.784C199.86 10.6347 199.3 10.5867 198.66 10.64C198.031 10.6827 197.46 10.8267 196.948 11.072C196.436 11.3067 196.004 11.6213 195.652 12.016C195.3 12.4 195.034 12.8587 194.852 13.392C194.671 13.9147 194.58 14.5067 194.58 15.168V24H190.196ZM207.911 24.48C205.735 24.48 203.975 23.9893 202.631 23.008C201.297 22.016 200.487 20.6187 200.199 18.816L204.647 18.144C204.828 18.9547 205.228 19.5893 205.847 20.048C206.476 20.5067 207.271 20.736 208.231 20.736C209.02 20.736 209.628 20.5867 210.055 20.288C210.481 19.9787 210.695 19.552 210.695 19.008C210.695 18.6667 210.609 18.3947 210.439 18.192C210.268 17.9787 209.884 17.7707 209.287 17.568C208.7 17.3653 207.783 17.0987 206.535 16.768C205.127 16.4053 204.001 16 203.159 15.552C202.316 15.104 201.708 14.5707 201.335 13.952C200.961 13.3227 200.775 12.5653 200.775 11.68C200.775 10.5707 201.057 9.61067 201.623 8.8C202.188 7.97867 202.983 7.34933 204.007 6.912C205.041 6.464 206.257 6.24 207.655 6.24C209.009 6.24 210.209 6.448 211.255 6.864C212.3 7.28 213.143 7.872 213.783 8.64C214.433 9.408 214.833 10.3147 214.983 11.36L210.535 12.16C210.46 11.52 210.183 11.0133 209.703 10.64C209.223 10.2667 208.572 10.048 207.751 9.984C206.951 9.93067 206.305 10.0373 205.815 10.304C205.335 10.5707 205.095 10.9547 205.095 11.456C205.095 11.7547 205.196 12.0053 205.399 12.208C205.612 12.4107 206.044 12.6187 206.695 12.832C207.356 13.0453 208.359 13.3227 209.703 13.664C211.015 14.0053 212.065 14.4053 212.855 14.864C213.655 15.312 214.236 15.856 214.599 16.496C214.961 17.1253 215.143 17.888 215.143 18.784C215.143 20.5547 214.503 21.9467 213.223 22.96C211.943 23.9733 210.172 24.48 207.911 24.48ZM228.835 24V15.84C228.835 15.4453 228.813 14.944 228.771 14.336C228.728 13.7173 228.595 13.0987 228.371 12.48C228.147 11.8613 227.779 11.344 227.267 10.928C226.765 10.512 226.051 10.304 225.123 10.304C224.749 10.304 224.349 10.3627 223.923 10.48C223.496 10.5973 223.096 10.8267 222.723 11.168C222.349 11.4987 222.04 11.9893 221.795 12.64C221.56 13.2907 221.443 14.1547 221.443 15.232L218.947 14.048C218.947 12.6827 219.224 11.4027 219.779 10.208C220.333 9.01333 221.165 8.048 222.275 7.312C223.395 6.576 224.803 6.208 226.499 6.208C227.853 6.208 228.957 6.43733 229.811 6.896C230.664 7.35467 231.325 7.936 231.795 8.64C232.275 9.344 232.616 10.08 232.819 10.848C233.021 11.6053 233.144 12.2987 233.187 12.928C233.229 13.5573 233.251 14.016 233.251 14.304V24H228.835ZM217.027 24V0.959999H220.899V12.8H221.443V24H217.027ZM236.123 4.32V0.48H240.475V4.32H236.123ZM236.123 24V6.72H240.475V24H236.123ZM252.151 24.48C250.434 24.48 248.999 24.08 247.847 23.28C246.695 22.48 245.826 21.392 245.239 20.016C244.663 18.64 244.375 17.088 244.375 15.36C244.375 13.632 244.663 12.08 245.239 10.704C245.815 9.328 246.663 8.24 247.783 7.44C248.903 6.64 250.285 6.24 251.927 6.24C253.581 6.24 255.021 6.63467 256.247 7.424C257.474 8.21333 258.423 9.296 259.095 10.672C259.778 12.0373 260.119 13.6 260.119 15.36C260.119 17.088 259.783 18.64 259.111 20.016C258.45 21.392 257.522 22.48 256.327 23.28C255.133 24.08 253.741 24.48 252.151 24.48ZM243.639 31.68V6.72H247.479V18.56H248.023V31.68H243.639ZM251.447 20.608C252.386 20.608 253.154 20.3733 253.751 19.904C254.349 19.4347 254.791 18.8053 255.079 18.016C255.367 17.216 255.511 16.3307 255.511 15.36C255.511 14.4 255.362 13.5253 255.063 12.736C254.765 11.936 254.301 11.3013 253.671 10.832C253.053 10.352 252.258 10.112 251.287 10.112C250.381 10.112 249.645 10.3307 249.079 10.768C248.525 11.2053 248.119 11.8187 247.863 12.608C247.607 13.3973 247.479 14.3147 247.479 15.36C247.479 16.4053 247.607 17.3227 247.863 18.112C248.119 18.9013 248.535 19.5147 249.111 19.952C249.698 20.3893 250.477 20.608 251.447 20.608ZM266.846 24V0.959999H280.926V5.312H271.198V10.304H279.006V14.656H271.198V24H266.846ZM289.778 24.48C288.008 24.48 286.445 24.1013 285.09 23.344C283.746 22.576 282.69 21.5253 281.922 20.192C281.165 18.848 280.786 17.312 280.786 15.584C280.786 13.696 281.16 12.0533 281.906 10.656C282.653 9.25867 283.682 8.176 284.994 7.408C286.306 6.62933 287.816 6.24 289.522 6.24C291.336 6.24 292.877 6.66667 294.146 7.52C295.416 8.37333 296.354 9.57333 296.962 11.12C297.57 12.6667 297.784 14.4853 297.602 16.576H293.298V14.976C293.298 13.216 293.016 11.952 292.45 11.184C291.896 10.4053 290.984 10.016 289.714 10.016C288.232 10.016 287.138 10.4693 286.434 11.376C285.741 12.272 285.394 13.6 285.394 15.36C285.394 16.9707 285.741 18.2187 286.434 19.104C287.138 19.9787 288.168 20.416 289.522 20.416C290.376 20.416 291.106 20.2293 291.714 19.856C292.322 19.4827 292.786 18.944 293.106 18.24L297.458 19.488C296.808 21.0667 295.778 22.2933 294.37 23.168C292.973 24.0427 291.442 24.48 289.778 24.48ZM284.05 16.576V13.344H295.506V16.576H284.05ZM306.367 24.48C304.191 24.48 302.431 23.9893 301.087 23.008C299.754 22.016 298.943 20.6187 298.655 18.816L303.103 18.144C303.284 18.9547 303.684 19.5893 304.303 20.048C304.932 20.5067 305.727 20.736 306.687 20.736C307.476 20.736 308.084 20.5867 308.511 20.288C308.938 19.9787 309.151 19.552 309.151 19.008C309.151 18.6667 309.066 18.3947 308.895 18.192C308.724 17.9787 308.34 17.7707 307.743 17.568C307.156 17.3653 306.239 17.0987 304.991 16.768C303.583 16.4053 302.458 16 301.615 15.552C300.772 15.104 300.164 14.5707 299.791 13.952C299.418 13.3227 299.231 12.5653 299.231 11.68C299.231 10.5707 299.514 9.61067 300.079 8.8C300.644 7.97867 301.439 7.34933 302.463 6.912C303.498 6.464 304.714 6.24 306.111 6.24C307.466 6.24 308.666 6.448 309.711 6.864C310.756 7.28 311.599 7.872 312.239 8.64C312.89 9.408 313.29 10.3147 313.439 11.36L308.991 12.16C308.916 11.52 308.639 11.0133 308.159 10.64C307.679 10.2667 307.028 10.048 306.207 9.984C305.407 9.93067 304.762 10.0373 304.271 10.304C303.791 10.5707 303.551 10.9547 303.551 11.456C303.551 11.7547 303.652 12.0053 303.855 12.208C304.068 12.4107 304.5 12.6187 305.151 12.832C305.812 13.0453 306.815 13.3227 308.159 13.664C309.471 14.0053 310.522 14.4053 311.311 14.864C312.111 15.312 312.692 15.856 313.055 16.496C313.418 17.1253 313.599 17.888 313.599 18.784C313.599 20.5547 312.959 21.9467 311.679 22.96C310.399 23.9733 308.628 24.48 306.367 24.48ZM325.883 24C324.688 24.224 323.515 24.32 322.363 24.288C321.222 24.2667 320.198 24.0693 319.291 23.696C318.395 23.312 317.712 22.6987 317.243 21.856C316.816 21.0667 316.592 20.2667 316.571 19.456C316.55 18.6347 316.539 17.7067 316.539 16.672V1.92H320.891V16.416C320.891 17.088 320.896 17.696 320.907 18.24C320.928 18.7733 321.04 19.2 321.243 19.52C321.627 20.128 322.24 20.4587 323.083 20.512C323.926 20.5653 324.859 20.5227 325.883 20.384V24ZM313.595 10.08V6.72H325.883V10.08H313.595ZM328.454 4.32V0.48H332.806V4.32H328.454ZM328.454 24V6.72H332.806V24H328.454ZM340.675 24L334.403 6.72H338.755L342.851 18.688L346.947 6.72H351.299L345.027 24H340.675ZM356.421 24.48C355.184 24.48 354.133 24.2453 353.269 23.776C352.416 23.296 351.765 22.6613 351.317 21.872C350.88 21.072 350.661 20.192 350.661 19.232C350.661 18.432 350.784 17.7013 351.029 17.04C351.275 16.3787 351.669 15.7973 352.213 15.296C352.768 14.784 353.509 14.3573 354.437 14.016C355.077 13.7813 355.84 13.5733 356.725 13.392C357.611 13.2107 358.613 13.04 359.733 12.88C360.853 12.7093 362.085 12.5227 363.429 12.32L361.861 13.184C361.861 12.16 361.616 11.408 361.125 10.928C360.635 10.448 359.813 10.208 358.661 10.208C358.021 10.208 357.355 10.3627 356.661 10.672C355.968 10.9813 355.483 11.5307 355.205 12.32L351.269 11.072C351.707 9.64267 352.528 8.48 353.733 7.584C354.939 6.688 356.581 6.24 358.661 6.24C360.187 6.24 361.541 6.47467 362.725 6.944C363.909 7.41333 364.805 8.224 365.413 9.376C365.755 10.016 365.957 10.656 366.021 11.296C366.085 11.936 366.117 12.6507 366.117 13.44V24H362.309V20.448L362.853 21.184C362.011 22.3467 361.099 23.1893 360.117 23.712C359.147 24.224 357.915 24.48 356.421 24.48ZM357.349 21.056C358.149 21.056 358.821 20.9173 359.365 20.64C359.92 20.352 360.357 20.0267 360.677 19.664C361.008 19.3013 361.232 18.9973 361.349 18.752C361.573 18.2827 361.701 17.7387 361.733 17.12C361.776 16.4907 361.797 15.968 361.797 15.552L363.077 15.872C361.787 16.0853 360.741 16.2667 359.941 16.416C359.141 16.5547 358.496 16.6827 358.005 16.8C357.515 16.9173 357.083 17.0453 356.709 17.184C356.283 17.3547 355.936 17.5413 355.669 17.744C355.413 17.936 355.221 18.1493 355.093 18.384C354.976 18.6187 354.917 18.88 354.917 19.168C354.917 19.5627 355.013 19.904 355.205 20.192C355.408 20.4693 355.691 20.6827 356.053 20.832C356.416 20.9813 356.848 21.056 357.349 21.056ZM368.998 24V0.48H373.35V24H368.998ZM380.712 23.968V20.192L390.376 11.616C391.102 10.976 391.614 10.3733 391.912 9.808C392.211 9.24267 392.36 8.71467 392.36 8.224C392.36 7.52 392.216 6.896 391.928 6.352C391.64 5.79733 391.235 5.36533 390.712 5.056C390.19 4.736 389.576 4.576 388.872 4.576C388.136 4.576 387.486 4.74667 386.92 5.088C386.366 5.41867 385.934 5.86133 385.624 6.416C385.315 6.96 385.171 7.552 385.192 8.192H380.712C380.712 6.61333 381.059 5.248 381.752 4.096C382.446 2.944 383.411 2.05333 384.648 1.424C385.886 0.794666 387.326 0.48 388.968 0.48C390.472 0.48 391.816 0.810666 393 1.472C394.195 2.12266 395.134 3.03466 395.816 4.208C396.499 5.38133 396.84 6.74133 396.84 8.288C396.84 9.42933 396.68 10.3787 396.36 11.136C396.04 11.8827 395.566 12.576 394.936 13.216C394.307 13.8453 393.534 14.56 392.616 15.36L386.376 20.832L386.024 19.872H396.84V23.968H380.712ZM407.609 24.48C405.902 24.48 404.409 24.1227 403.129 23.408C401.849 22.6933 400.852 21.696 400.137 20.416C399.422 19.136 399.065 17.6427 399.065 15.936V9.024C399.065 7.31733 399.422 5.824 400.137 4.544C400.852 3.264 401.849 2.26667 403.129 1.552C404.409 0.837332 405.902 0.48 407.609 0.48C409.316 0.48 410.809 0.837332 412.089 1.552C413.369 2.26667 414.366 3.264 415.081 4.544C415.796 5.824 416.153 7.31733 416.153 9.024V15.936C416.153 17.6427 415.796 19.136 415.081 20.416C414.366 21.696 413.369 22.6933 412.089 23.408C410.809 24.1227 409.316 24.48 407.609 24.48ZM407.609 20.352C408.377 20.352 409.07 20.1707 409.689 19.808C410.308 19.4453 410.798 18.9547 411.161 18.336C411.524 17.7173 411.705 17.024 411.705 16.256V8.672C411.705 7.904 411.524 7.21067 411.161 6.592C410.798 5.97333 410.308 5.48267 409.689 5.12C409.07 4.75733 408.377 4.576 407.609 4.576C406.841 4.576 406.148 4.75733 405.529 5.12C404.91 5.48267 404.42 5.97333 404.057 6.592C403.694 7.21067 403.513 7.904 403.513 8.672V16.256C403.513 17.024 403.694 17.7173 404.057 18.336C404.42 18.9547 404.91 19.4453 405.529 19.808C406.148 20.1707 406.841 20.352 407.609 20.352ZM418.388 23.968V20.192L428.052 11.616C428.777 10.976 429.289 10.3733 429.588 9.808C429.886 9.24267 430.036 8.71467 430.036 8.224C430.036 7.52 429.892 6.896 429.604 6.352C429.316 5.79733 428.91 5.36533 428.388 5.056C427.865 4.736 427.252 4.576 426.548 4.576C425.812 4.576 425.161 4.74667 424.596 5.088C424.041 5.41867 423.609 5.86133 423.3 6.416C422.99 6.96 422.846 7.552 422.868 8.192H418.388C418.388 6.61333 418.734 5.248 419.428 4.096C420.121 2.944 421.086 2.05333 422.324 1.424C423.561 0.794666 425.001 0.48 426.644 0.48C428.148 0.48 429.492 0.810666 430.676 1.472C431.87 2.12266 432.809 3.03466 433.492 4.208C434.174 5.38133 434.516 6.74133 434.516 8.288C434.516 9.42933 434.356 10.3787 434.036 11.136C433.716 11.8827 433.241 12.576 432.612 13.216C431.982 13.8453 431.209 14.56 430.292 15.36L424.052 20.832L423.7 19.872H434.516V23.968H418.388ZM436.1 23.968V20.192L445.764 11.616C446.489 10.976 447.001 10.3733 447.3 9.808C447.599 9.24267 447.748 8.71467 447.748 8.224C447.748 7.52 447.604 6.896 447.316 6.352C447.028 5.79733 446.623 5.36533 446.1 5.056C445.577 4.736 444.964 4.576 444.26 4.576C443.524 4.576 442.873 4.74667 442.308 5.088C441.753 5.41867 441.321 5.86133 441.012 6.416C440.703 6.96 440.559 7.552 440.58 8.192H436.1C436.1 6.61333 436.447 5.248 437.14 4.096C437.833 2.944 438.799 2.05333 440.036 1.424C441.273 0.794666 442.713 0.48 444.356 0.48C445.86 0.48 447.204 0.810666 448.388 1.472C449.583 2.12266 450.521 3.03466 451.204 4.208C451.887 5.38133 452.228 6.74133 452.228 8.288C452.228 9.42933 452.068 10.3787 451.748 11.136C451.428 11.8827 450.953 12.576 450.324 13.216C449.695 13.8453 448.921 14.56 448.004 15.36L441.764 20.832L441.412 19.872H452.228V23.968H436.1Z" fill="url(#paint0_linear_390_9211)"/>
<defs>
<linearGradient id="paint0_linear_390_9211" x1="454" y1="12.0001" x2="-39.3773" y2="36.9759" gradientUnits="userSpaceOnUse">
<stop offset="0.00291487" stop-color="#E24B4C"/>
<stop offset="1" stop-color="#EBB12D"/>
</linearGradient>
</defs>
</svg>
